<svg enable-background="new 0 0 487.3 487.3" viewBox="0 0 487.3 487.3" xmlns="http://www.w3.org/2000/svg" xmlns:xlink="http://www.w3.org/1999/xlink"><defs><path id="a" d="m293.9 352.1v28.7h14.4v-28.7zm-28.7 57.4h14.4v-86.2h-14.4zm-86.2-28.7h14.4v-28.7h-14.4zm57.5 57.5h14.4v-143.7h-14.4zm-28.7-28.8h14.4v-86.2h-14.4z"/><clipPath id="b"><use xlink:href="#a"/></clipPath><clipPath id="c"><use xlink:href="#d"/></clipPath><path id="d" d="m-1099.1-1838h2692.7v4789.5h-2692.7z"/></defs><g fill="#fff"><path d="m243.6 24.1c-134.3.7-243.6 110.4-243.6 244.7 0 40.8 10.2 81 29.6 116.6v-64.7c0-11.9 4.2-23 11.7-32.5-.6-6.5-.9-12.9-.9-19.5 0-112.2 91.3-203.9 203.3-204.4 112.1.7 203.3 92.4 203.3 204.5 0 7.2-.4 14.4-1.2 21.5 6.5 9 10.1 19.3 10.1 30.4v68c20.5-36.4 31.4-77.9 31.4-119.9 0-134.3-109.2-244-243.7-244.7z"/><path d="m44.6 310.3c-1 3.4-1.6 6.9-1.6 10.4v62.4 29c0 28.2 33.6 51.1 75 51.1h31.6v-193.5h-31.6c-36.2 0-66.3 17.4-73.4 40.6z"/><path d="m442.5 412.1v-30-61.3c0-2.2-.2-4.4-.6-6.5-4.7-25.1-36.2-44.6-74.4-44.6h-31.6v193.5h31.6c41.5 0 75-22.9 75-51.1z"/><use xlink:href="#a"/><g clip-path="url(#b)"><use xlink:href="#d"/><path clip-path="url(#c)" d="m143.1 258.7h201.1v215.4h-201.1z"/></g></g></svg>