<?xml version="1.0" standalone="no"?>
<!DOCTYPE svg PUBLIC "-//W3C//DTD SVG 20010904//EN"
 "http://www.w3.org/TR/2001/REC-SVG-20010904/DTD/svg10.dtd">
<svg version="1.0" xmlns="http://www.w3.org/2000/svg"
 width="700.000000pt" height="700.000000pt" viewBox="0 0 700.000000 700.000000"
 preserveAspectRatio="xMidYMid meet">
<metadata>
Created by potrace 1.11, written by Peter Selinger 2001-2013
</metadata>
<g transform="translate(0.000000,700.000000) scale(0.100000,-0.100000)"
fill="#000000" stroke="none">
<path d="M3355 6994 c-527 -31 -945 -138 -1390 -354 -361 -176 -647 -381 -935
-670 -581 -580 -926 -1311 -1011 -2135 -16 -154 -16 -516 0 -670 84 -822 433
-1559 1010 -2135 401 -401 873 -688 1416 -863 383 -124 836 -181 1236 -157
208 12 280 21 469 56 927 174 1748 721 2269 1514 383 582 574 1221 574 1920 0
324 -35 602 -114 898 -353 1326 -1459 2332 -2809 2551 -213 35 -539 55 -715
45z m1086 -1210 c38 -36 42 -73 18 -138 l-21 -54 40 -51 c38 -47 82 -143 82
-176 0 -11 48 -14 283 -17 315 -3 332 -7 385 -76 36 -47 44 -146 15 -194 -18
-30 -199 -261 -1310 -1673 l-323 -410 0 -613 c0 -594 1 -615 21 -674 37 -111
115 -205 208 -253 85 -43 114 -48 308 -54 185 -6 192 -7 217 -30 55 -52 40
-148 -29 -177 -30 -12 -154 -14 -851 -12 l-816 3 -29 33 c-49 55 -36 138 28
171 13 7 82 11 175 11 169 0 238 12 320 57 63 34 137 109 172 174 56 101 56
104 56 759 l0 605 -811 1030 c-446 567 -817 1043 -826 1060 -21 38 -20 122 1
162 16 31 61 71 101 89 11 5 460 11 1013 14 l993 5 31 72 c55 133 159 217 282
230 l57 6 29 64 c23 49 36 67 62 78 42 19 85 11 119 -21z"/>
<path d="M4348 5738 c-9 -7 -29 -43 -43 -80 l-27 -68 -62 0 c-127 0 -217 -74
-274 -224 l-33 -86 -1002 0 c-934 0 -1004 -1 -1037 -18 -42 -21 -74 -79 -66
-119 4 -16 374 -495 831 -1077 l825 -1049 0 -613 c0 -409 -4 -631 -11 -666
-17 -80 -64 -171 -121 -233 -64 -71 -119 -109 -205 -142 -62 -24 -83 -27 -251
-31 -163 -4 -183 -6 -192 -22 -13 -25 -3 -49 24 -55 11 -3 378 -4 815 -3 743
3 795 4 805 20 8 13 8 23 0 35 -10 16 -35 19 -195 24 -195 7 -252 19 -338 71
-62 38 -151 130 -186 193 -65 117 -65 116 -65 802 l0 619 507 645 c278 354
649 826 824 1048 200 255 319 414 323 434 9 43 -21 98 -64 119 -31 16 -70 18
-337 18 l-303 0 0 43 c0 74 -28 137 -86 192 l-52 50 23 58 c36 87 37 94 20
111 -20 19 -26 20 -47 4z m-55 -242 c39 -17 92 -71 106 -109 6 -16 11 -46 11
-68 l0 -39 -209 0 -209 0 20 52 c37 97 60 128 123 161 37 20 115 21 158 3z
m-767 -296 l1594 0 0 -24 c0 -16 -83 -130 -250 -342 -138 -176 -260 -327 -271
-336 -12 -10 -36 -18 -55 -18 -19 0 -81 -16 -138 -35 -142 -47 -205 -47 -341
0 -55 19 -108 35 -117 35 -10 0 -18 2 -18 5 0 3 38 102 85 221 68 172 83 219
75 235 -14 26 -46 24 -64 -3 -7 -13 -51 -119 -96 -235 l-83 -213 -36 -5 c-20
-3 -79 -20 -131 -38 -136 -45 -229 -45 -360 2 -84 31 -106 35 -190 34 -83 0
-107 -5 -185 -34 -117 -43 -235 -47 -330 -10 -33 13 -95 31 -138 40 l-77 16
-260 330 -260 329 0 56 0 55 26 -32 25 -33 1595 0z m-761 -864 c101 0 117 3
195 34 73 29 97 33 170 34 71 0 100 -6 175 -33 152 -55 256 -52 420 10 98 37
194 33 329 -15 103 -36 115 -38 200 -34 79 4 104 10 189 46 53 22 94 35 90 28
-26 -43 -1027 -1306 -1034 -1304 -6 2 -353 442 -1010 1279 l-29 36 98 -41 c94
-39 100 -41 207 -40z m845 -2883 c19 -21 58 -57 85 -80 l50 -43 -244 0 -244 0
49 43 c77 67 112 107 156 180 l41 68 36 -65 c20 -36 52 -82 71 -103z"/>
<path d="M4128 5400 c-22 -21 -37 -44 -33 -50 7 -11 227 -15 238 -4 12 12 -23
64 -53 79 -16 8 -48 15 -71 15 -35 0 -47 -6 -81 -40z"/>
<path d="M2000 5122 c0 -5 99 -134 221 -288 l220 -279 54 -7 c29 -4 82 -19
117 -33 36 -16 91 -29 130 -32 58 -5 80 -1 180 32 100 33 124 38 213 38 89 0
111 -4 205 -36 126 -44 192 -48 278 -16 31 12 85 29 119 38 l61 16 82 210 c45
116 91 220 103 232 48 53 145 34 173 -33 18 -42 19 -35 -62 -244 -35 -91 -64
-171 -64 -177 0 -6 34 -23 75 -38 65 -24 85 -27 152 -22 52 3 99 14 142 32 35
14 86 29 112 32 l49 6 217 276 c119 152 220 282 226 289 8 9 -293 12 -1497 12
-828 0 -1506 -4 -1506 -8z"/>
<path d="M2980 4303 c-94 -33 -116 -37 -207 -37 -64 -1 -99 -5 -95 -11 15 -24
815 -1040 821 -1043 6 -2 831 1040 831 1050 0 1 -46 3 -103 3 -93 0 -112 4
-212 39 -132 46 -172 45 -316 -5 -84 -30 -106 -33 -199 -33 -94 0 -115 3 -200
33 -139 49 -191 50 -320 4z"/>
<path d="M3466 1435 l-27 -35 55 0 c31 0 56 3 56 6 0 11 -41 64 -49 64 -5 0
-21 -16 -35 -35z"/>
</g>
</svg>
